# xmcd
#
# Track frame offsets:
#	150
#	15851
#	34546
#	50144
#	65753
#	82227
#	98382
#	117096
#	134403
#	149251
#	167144
#	182210
#	197350
#	213726
#	229721
#	245494
#	263118
#	279383
#	313688
#	331602
#
# Disc length: 4627 seconds
#
# Revision: 1
# Processed by: cddbd v1.5.2PL0 Copyright (c) Steve Scherf et al.
# Submitted via: audiograbber 1.83.01
#
DISCID=1a121114
DTITLE=Jörg Bausch - Best Of
DYEAR=2013
DGENRE=Schlager
TTITLE0=Großes Kino
TTITLE1=Wie ein Wolf in der Nacht
TTITLE2=Ich bin in dich
TTITLE3=Schall und Rauch
TTITLE4=Tornado
TTITLE5=Am Zuckerwattenstand
TTITLE6=Dieser Flug
TTITLE7=Leuchtturm
TTITLE8=Du bleibst nur ein Traum
TTITLE9=Mann im Mond
TTITLE10=Alles ist ideal
TTITLE11=Die Lady macht alle gaga
TTITLE12=Ein Schatz ohne Silber und Gold
TTITLE13=Auf dünnem Eis
TTITLE14=Herz in Not
TTITLE15=Doch Tränen wirst du niemals sehen
TTITLE16=Nichts für schwache Nerven
TTITLE17=Total verbauscht
TTITLE18=Allein sein
TTITLE19=Ein Gutes Jahr
EXTD=
EXTT0=
EXTT1=
EXTT2=
EXTT3=
EXTT4=
EXTT5=
EXTT6=
EXTT7=
EXTT8=
EXTT9=
EXTT10=
EXTT11=
EXTT12=
EXTT13=
EXTT14=
EXTT15=
EXTT16=
EXTT17=
EXTT18=
EXTT19=
PLAYORDER=
